<svg xmlns="http://www.w3.org/2000/svg" width="512" height="512" viewBox="0 0 5120 5120"><path d="M714 720l720 718-124 62c-246 122-490 284-730 482-126 103-473 440-545 530l-37 48 22 27c50 64 283 304 395 406 560 510 1120 803 1745 910 117 20 170 22 395 22 200 0 285-4 370-18 230-37 410-86 638-175l118-45 720 720 720 718V0H-2l720 720zm2240 504c670 110 1300 460 1890 1050 95 94 193 197 220 228l48 58-48 57c-80 94-360 372-475 470-147 122-287 227-446 330-125 83-360 215-435 243l-34 13-196-196-193-195 40-50c116-140 180-278 218-460 24-116 16-353-14-467-20-87-90-238-140-313-46-68-173-197-244-248-80-58-230-130-330-156-110-30-363-32-474-4-154 40-300 113-417 213l-64 56-206-206-205-205 50-22c210-92 495-172 744-205 140-20 574-13 713 10zm-384 1352l705 705-35 30c-338 297-853 330-1226 80-358-233-525-670-413-1080 27-83 87-214 130-284 40-60 120-153 130-153 5 0 325 320 710 707z"/></svg>
