<svg xmlns="http://www.w3.org/2000/svg" width="455" height="65" viewBox="0 0 4550 650"><style type="text/css">#a{display:none}@media(min-width:480px){#a{display:inline}#b{display:none}}</style><path id="a" d="M261.5 410c0 75.2-9.8 132-74.3 132-54 0-75.2-44-75.2-93.6V201.2c0-49.6 22-92.8 76-92.8 70.2 0 73.5 64.8 73.5 131.2H322C322 115.6 297.3 50 188 50 93 50 51.4 115.6 51.4 201.2v247.2c0 85.6 41 151.2 135.7 151.2C309.7 599.6 322 510.8 322 410zm-187-208.8c0-72.8 34.3-128.8 113.5-128.8 80 0 111 56 111 144.8h-14.7C284.4 150.8 270.6 86 188 86c-69.5 0-99 54.4-99 115.2v247.2c0 60.8 28.6 115.2 98 115.2 82.6 0 97.3-65.6 97.3-131.2H299c0 76.8-19.6 145.6-112 145.6-79.2 0-112.6-56.8-112.6-129.6zm560 0C634.6 119.6 594 50 500 50c-93.2 0-135.7 69.6-135.7 151.2v247.2c0 84.8 40.8 151.2 135.5 151.2 96.4 0 134.8-64.8 134.8-151.2zm-247.4 0c0-69.6 35.3-130.4 113-130.4 78.3 0 111.8 60.8 111.8 130.4v247.2c0 73.6-31 129.6-112 129.6-79.2 0-112.6-57.6-112.6-129.6zM402 442c0 63.2 24.4 120.8 98 120.8s97-54.4 97-118.4V209.2c0-63.2-22.7-122.4-97-122.4-72 0-98 60.8-98 121.6zm172.2 2.4c0 52-17.2 96.8-74.3 96.8-56.5 0-76-48-76-99.2V208.4c0-50.4 20.4-99.2 76-99.2 57 0 74.2 48.8 74.2 100zm96.3 150.4h59.7V238c79.2 192.8 115 281.6 147 356.8H927V55.6h-59.6v356.8l-147-356.8h-49.8zm37.6-22.4h-15.4V77.2h13l184.7 449.6V77.2H904v495.2h-12C830 422.8 770 273.2 708 122.8zm414.3-459.2h91.5V54.8H971v58.4h91.4V594h59.7zM994 77.2h197.7v14.4h-91.5v480.8h-15.5V91.6H994zm257-21.6v539.2h59.6V356.4h56.4c51.3 0 68.4 20.8 68.4 70.4v168h59.7V424.4c0-36-9-76-34.2-99.2 30.2-29.6 37.5-77.6 37.5-118.4 0-89.6-24.5-151.2-129.8-151.2zm222.2 516.8h-15.5V426.8c0-64.8-22-92.8-90.7-92.8h-78.5v238.4H1273V77.2h95.5c86.5 0 107 53.6 107 129.6 0 48-8.2 104-62 120 49 11.2 59.6 55.2 59.6 97.6zm-184.7-252.8h69.5c82.5 0 103-36.8 103-112.8 0-68-15.6-114.4-95.6-114.4h-77zm22-22.4V114h54.8c61.3 0 72.7 37.6 72.7 92.8 0 60.8-15.5 90.4-80 90.4zm353-241.6l-126 539.2h61.4l36.6-154.4H1740l34.5 154.4h61.2l-125-539.2zm94.6 363.2h-142l-35 153.6h-15.6l116-495.2h11.5l115 495.2h-14.7zm-138.7-14.4H1755L1687 114zm107-21.6H1648l39-171.2zm269.4-77.6c-44-38.4-88.2-75.2-88.2-119.2 0-42.4 23-77.6 67.8-77.6 58 0 62 60.8 62 123.2h59.7c0-100.8-11.5-181.6-121.7-181.6-79.2 0-127.4 57.6-127.4 132 0 73.6 62.8 136 117.5 174.4l-.8-.8c34.3 28 77.5 68 77.5 110.4 0 46.4-23.6 75.2-71 75.2-60.4 0-68.6-56-68.6-130.4H1843c0 123.2 26 188.8 128.2 188.8 88.2 0 130.7-49.6 130.7-134.4 0-66.4-53.2-114.4-106.3-160.8zm-115.2 128c0 54.4 10 130.4 90.8 130.4 63 0 94-36.8 94-97.6 0-44.8-48.3-96-86.7-127.2h1c-50.7-36-108.7-92-108.7-156.8 0-61.6 39-110.4 104.4-110.4 81.7 0 99 55.2 99 138.4h-14c-1-55.2-5.8-124-85-124-59.5 0-90.6 45.6-90.6 100 0 108.8 195.2 162.4 195.2 279.2 0 71.2-35.2 112-108.7 112-82.5 0-106.2-56-106.2-144zm390.2-320h91.5V54.8h-242.6v58.4h91.5V594h59.7zm-128.2-36h197.8v14.4h-91.5v480.8h-15.5V91.6h-90.8zM2307.3 298v58.4h221.2V298zm199.2 22.4v14.4H2330v-14.4zM2836 201.2c0-81.6-41-151.2-134.8-151.2-93 0-135.6 69.6-135.6 151.2v247.2c0 84.8 41 151.2 135.6 151.2 96.4 0 134.8-64.8 134.8-151.2zm-247.5 0c0-69.6 35-130.4 112.7-130.4 78.4 0 112 60.8 112 130.4v247.2c0 73.6-31 129.6-112 129.6-79.3 0-112.7-57.6-112.7-129.6zm14.7 240.8c0 63.2 24.5 120.8 98 120.8s97.2-54.4 97.2-118.4V209.2c0-63.2-23-122.4-97.2-122.4-72 0-98 60.8-98 121.6zm172.3 2.4c0 52-17 96.8-74.3 96.8-56.4 0-76-48-76-99.2V208.4c0-50.4 20.5-99.2 76-99.2 57 0 74.3 48.8 74.3 100zM2886.3 298v58.4h221.3V298zm199.3 22.4v14.4h-176.3v-14.4zM3257.8 594l125.7-539.2h-61.2l-88.2 384-90.5-384h-62.2L3209.5 594zm-23.7-56l106.2-460.8h15.6l-116 495.2h-12.3L3110 77.2h15.5zm185-482.4v539.2h59.7V55.6zm37.6 21.6v495.2H3441V77.2zm214 228c-44-38.4-88-75.2-88-119.2 0-42.4 22.7-77.6 67.7-77.6 58 0 62 60.8 62 123.2h59.6c0-100.8-11.6-181.6-122-181.6-79 0-127.3 57.6-127.3 132 0 73.6 63 136 117.6 174.4l-1-.8c34.4 28 77.7 68 77.7 110.4 0 46.4-23.6 75.2-71 75.2-60.5 0-68.6-56-68.6-130.4H3518c0 123.2 26 188.8 128 188.8 88.2 0 130.7-49.6 130.7-134.4 0-66.4-53-114.4-106.2-160.8zm-115 128c0 54.4 9.7 130.4 90.6 130.4 63 0 94-36.8 94-97.6 0-44.8-48.3-96-86.7-127.2h.8c-50.6-36-108.6-92-108.6-156.8 0-61.6 39.2-110.4 104.5-110.4 81.7 0 99 55.2 99 138.4h-14c-.7-55.2-5.6-124-85-124-59.5 0-90.5 45.6-90.5 100 0 108.8 195.2 162.4 195.2 279.2 0 71.2-35.2 112-108.7 112-82.6 0-106.2-56-106.2-144zm262.3-377.6v539.2h59.5V55.6zm37.4 21.6v495.2H3840V77.2zm347.6 124c0-81.6-40.8-151.2-134.8-151.2-93 0-135.4 69.6-135.4 151.2v247.2c0 84.8 40.7 151.2 135.4 151.2 96.5 0 134.8-64.8 134.8-151.2zm-247.5 0c0-69.6 35-130.4 112.8-130.4 78.3 0 111.8 60.8 111.8 130.4v247.2c0 73.6-31 129.6-111.8 129.6-79.2 0-112.7-57.6-112.7-129.6zm14.8 240.8c0 63.2 24.4 120.8 98 120.8s97-54.4 97-118.4V209.2c0-63.2-23-122.4-97.2-122.4-71.7 0-98 60.8-98 121.6zm172.3 2.4c0 52-17.2 96.8-74.3 96.8-56.4 0-76-48-76-99.2V208.4c0-50.4 20.5-99.2 76-99.2 57 0 74.3 48.8 74.3 100zm96.4 150.4h59.5V238c79.3 192.8 115.3 281.6 147 356.8h50V55.6h-59.7v356.8l-147-356.8h-50zm37.5-22.4H4261V77.2h13l184.7 449.6V77.2h13.8v495.2h-12c-62.2-149.6-121.8-299.2-184-449.6z"/><path id="b" d="M50 438c0 63.2 16.4 100 39.4 124.8 24.5 25.6 55 32 83.3 32 26.7 0 58-6.4 82.5-32 23-24.8 38.6-61.6 38.6-124.8v-11.2c0-16-12-28.8-26-28.8h-21.6c-14.8 0-26.7 12.8-26.7 28.8V438c0 28.8-3.8 50.4-12.8 63.2-6.6 8-20 14.4-34 14.4-32 0-47.7-24-47.7-77.6V211.6c0-53.6 16.4-76.8 47.6-76.8 30.5 0 46.8 23.2 46.8 76.8v11.2c0 16 11.8 28.8 26.7 28.8h21.6c14.2 0 26-12.8 26-28.8v-11.2c0-60.8-15.6-100.8-39.3-124.8-24.5-24-54.3-31.2-81.8-31.2-28.2 0-58 7.2-82.5 31.2-23.7 24-40 64-40 124.8zm294.7 0c0 63.2 16.4 100 39.4 124.8 24.6 25.6 55.8 32 82.6 32 27.5 0 58.7-6.4 83.2-32 23-24.8 38.7-61.6 38.7-124.8V211.6c0-101.6-40.2-156-122-156-81 0-121.8 55.2-121.8 156zM419 211.6c0-52 15-76.8 47.6-76.8 32 0 47.5 23.2 47.5 76.8V438c0 54.4-16.2 77.6-47.4 77.6-32 0-47.5-24.8-47.5-77.6zm447 383.2c14.7 0 26.6-12.8 26.6-28.8V84.4c0-16-12-28.8-26.7-28.8h-21c-14.7 0-26.6 12.8-26.6 28.8v264L715 73.2c-3-8.8-14.8-17.6-24.5-17.6h-18c-14 0-26.6 12.8-26.6 28.8V566c0 16 12.5 28.8 26.6 28.8H694c14.3 0 27-12.8 27-28.8V302l103.3 275.2c3 8.8 15.6 17.6 24.5 17.6zM948.4 106c0 16 12 28.8 26.8 28.8h60.2v430.4c0 16 11.8 28.8 26.8 28.8h20c15 0 26.8-12.8 26.8-28.8V134.8h61c15 0 26.8-12.8 26.8-28.8V83.6c0-16-12-28.8-26.8-28.8H975.4c-15 0-26.8 12.8-26.8 28.8zm540 325.6c0-41.6-10.5-74.4-32-99.2l6-6.4c23-24.8 31-64.8 31-114.4 0-107.2-32-156.8-123.3-156.8h-93.7c-14.8 0-26.7 12.8-26.7 28.8v481.6c0 16 12 28.8 26.8 28.8h21c14 0 26-12.8 26-28.8v-196h33.5c36.3 0 57 22.4 57 62.4v133.6c0 16 12 28.8 27 28.8h20.7c15 0 26.8-12.8 26.8-28.8zm-165-296.8h46.7c38.6 0 49.8 22.4 49.8 76.8s-21.5 76.8-63 76.8H1323zm395 437.6c3 12 14.7 22.4 26 22.4h21.4c17.8 0 29.6-16.8 26-35.2L1689.2 78c-2.2-12-14.8-22.4-26-22.4H1647c-11.2 0-23 10.4-26 22.4l-67.7 312.8-35.7 169.6c-3.7 18.4 8.2 34.4 26 34.4h21.5c11.3 0 23.2-10.4 26.2-22.4l26-124.8h75.8zm-63.3-332c14 68 12.6 89.6 20.8 128h-41.7zM1826.8 438c0 104.8 41 156 122.7 156 78.7 0 122.5-48 122.5-137.6 0-77.6-49.8-118.4-99-159.2h.8c-36.5-30.4-72.8-61.6-72.8-102.4 0-41.6 17-60 48.4-60 32.6 0 48.2 24 48.2 76.8v11.2c0 16 12 28.8 26.8 28.8h20.7c15 0 27-12.8 27-28.8v-11.2c0-101.6-42.6-156.8-122.8-156.8-78.8 0-122.7 52-122.7 142.4 0 79.2 51.3 122.4 100.4 164v-.8c36.2 30.4 70.4 60 70.4 97.6 0 42.4-17 56.8-48.3 56.8-10.4 0-23-1.6-31-10.4-10.5-9.6-17.2-28-17.2-66.4v-10.4c0-16-12.7-28.8-26.8-28.8h-20.8c-14.8 0-26.7 12.8-26.7 28.8zm271.4-332c0 16 12 28.8 26.8 28.8h60v430.4c0 16 12 28.8 26.8 28.8h20c14.8 0 26.7-12.8 26.7-28.8V134.8h61c14.8 0 26.7-12.8 26.7-28.8V83.6c0-16-12-28.8-26.8-28.8H2125c-15 0-26.8 12.8-26.8 28.8zM2522.8 314.8c0-16-11.8-28.8-26.7-28.8h-162c-14.8 0-26.7 12.8-26.7 28.8v21.6c0 16 12 28.8 26.8 28.8h162c15 0 26.8-12.8 26.8-28.8zm43 123.2c0 63.2 16.2 100 39.3 124.8 24.6 25.6 55.8 32 82.6 32 27.5 0 58.7-6.4 83.2-32 23-24.8 38.6-61.6 38.6-124.8V211.6c0-101.6-40.2-156-122-156-81 0-121.8 55.2-121.8 156zm74.2-226.4c0-52 14.8-76.8 47.6-76.8 32 0 47.5 23.2 47.5 76.8V438c0 54.4-16.2 77.6-47.4 77.6-32 0-47.6-24.8-47.6-77.6zm444.6 103.2c0-16-11.8-28.8-26.7-28.8h-162c-15 0-27 12.8-27 28.8v21.6c0 16 12 28.8 26.8 28.8h162c15 0 26.8-12.8 26.8-28.8zm71.5-237.6c-3-12-14.8-22.4-26-22.4h-20.8c-18.5 0-30.4 16.8-26 35.2l105.6 481.6c2.2 12.8 14 22.4 26 22.4h15.6c11.2 0 23-9.6 26-22.4L3362 90c3.7-18.4-8.2-35.2-26-35.2h-21.6c-11.2 0-23.8 10.4-26 22.4L3222 382zm320 7.2c0-16-12.5-28.8-26.7-28.8h-20.8c-14.8 0-26.8 12.8-26.8 28.8V566c0 16 12 28.8 26.8 28.8h20.8c14.2 0 26.8-12.8 26.8-28.8zm50.6 353.6c0 104.8 41 156 122.7 156 78.8 0 122.6-48 122.6-137.6 0-77.6-50-118.4-99-159.2h1c-36.5-30.4-73-61.6-73-102.4 0-41.6 17-60 48.4-60 32.7 0 48.3 24 48.3 76.8v11.2c0 16 12 28.8 26.8 28.8h20.8c15 0 26.8-12.8 26.8-28.8v-11.2c0-101.6-42.3-156.8-122.6-156.8-78.8 0-122.7 52-122.7 142.4 0 79.2 51.4 122.4 100.4 164v-.8c36.6 30.4 70.7 60 70.7 97.6 0 42.4-17 56.8-48.2 56.8-10.5 0-23-1.6-31.3-10.4-10.3-9.6-17-28-17-66.4v-10.4c0-16-12.7-28.8-26.8-28.8h-20.8c-15 0-26.8 12.8-26.8 28.8zm367.6-353.6c0-16-12.7-28.8-26.8-28.8h-21c-14.6 0-26.5 12.8-26.5 28.8V566c0 16 11.8 28.8 26.7 28.8h21c14 0 26.6-12.8 26.6-28.8zm50.5 353.6c0 63.2 16.4 100 39.4 124.8 24.6 25.6 55.8 32 82.6 32 27.5 0 58.7-6.4 83.3-32 23-24.8 38.5-61.6 38.5-124.8V211.6c0-101.6-40-156-122-156-81 0-121.8 55.2-121.8 156zm74.3-226.4c0-52 15-76.8 47.7-76.8 32 0 47.5 23.2 47.5 76.8V438c0 54.4-16.3 77.6-47.5 77.6-32 0-47.5-24.8-47.5-77.6zm447 383.2c14.7 0 26.6-12.8 26.6-28.8V84.4c0-16-12-28.8-26.7-28.8h-21c-14.8 0-26.7 12.8-26.7 28.8v264L4315 73.2c-3-8.8-14.8-17.6-24.5-17.6h-18c-14 0-26.6 12.8-26.6 28.8V566c0 16 12.5 28.8 26.6 28.8h21.5c14.3 0 27-12.8 27-28.8V302l103.3 275.2c3 8.8 15.6 17.6 24.5 17.6z"/></svg>
